<svg width="41" height="41" viewBox="0 0 41 41" fill="none" xmlns="http://www.w3.org/2000/svg">
<circle cx="20.5" cy="20.5" r="20.5" fill="#D9D9D9"/>
<path d="M18.1337 25.0002H15.2313V15.6533H18.1337V25.0002ZM16.6809 14.3783C15.7528 14.3783 15 13.6096 15 12.6814C15 12.2356 15.1771 11.8081 15.4923 11.4928C15.8076 11.1776 16.2351 11.0005 16.6809 11.0005C17.1267 11.0005 17.5543 11.1776 17.8695 11.4928C18.1848 11.8081 18.3619 12.2356 18.3619 12.6814C18.3619 13.6096 17.6088 14.3783 16.6809 14.3783ZM28.9969 25.0002H26.1006V20.4502C26.1006 19.3658 26.0787 17.9752 24.5916 17.9752C23.0825 17.9752 22.8513 19.1533 22.8513 20.3721V25.0002H19.9519V15.6533H22.7356V16.9283H22.7762C23.1637 16.1939 24.1103 15.4189 25.5225 15.4189C28.46 15.4189 29 17.3533 29 19.8658V25.0002H28.9969Z" fill="black"/>
</svg>
