<svg width="41" height="41" viewBox="0 0 41 41" fill="none" xmlns="http://www.w3.org/2000/svg">
<circle cx="20.5" cy="20.5" r="20.5" fill="#D9D9D9"/>
<path d="M27.2525 16.0377C27.2633 16.1887 27.2633 16.3397 27.2633 16.4907C27.2633 21.0966 23.7576 26.4038 17.3503 26.4038C15.3763 26.4038 13.5425 25.832 12 24.8397C12.2805 24.872 12.5501 24.8828 12.8414 24.8828C14.4701 24.8828 15.9695 24.3327 17.1669 23.3943C15.6351 23.3619 14.3515 22.3587 13.9092 20.978C14.125 21.0104 14.3407 21.0319 14.5673 21.0319C14.8801 21.0319 15.1929 20.9888 15.4841 20.9133C13.8877 20.5897 12.6903 19.1874 12.6903 17.4939V17.4507C13.1541 17.7096 13.6935 17.8714 14.2652 17.893C13.3267 17.2673 12.7119 16.1995 12.7119 14.9913C12.7119 14.3441 12.8845 13.7509 13.1865 13.2331C14.9016 15.3473 17.4797 16.728 20.3705 16.879C20.3166 16.6201 20.2842 16.3505 20.2842 16.0808C20.2842 14.1607 21.8375 12.5967 23.7683 12.5967C24.7715 12.5967 25.6776 13.0174 26.314 13.6969C27.1014 13.5459 27.8565 13.2547 28.5253 12.8556C28.2664 13.6646 27.7163 14.3442 26.9936 14.7756C27.6948 14.7001 28.3743 14.5059 28.9999 14.2363C28.5254 14.9266 27.9321 15.5414 27.2525 16.0377Z" fill="black"/>
</svg>
