<svg width="41" height="41" viewBox="0 0 41 41" fill="none" xmlns="http://www.w3.org/2000/svg">
<circle cx="20.5" cy="20.5" r="20.5" fill="#D9D9D9"/>
<g clip-path="url(#clip0_2103_7)">
<path d="M20.0036 17.9568C17.7321 17.9568 15.9 19.7604 15.9 21.9963C15.9 24.2322 17.7321 26.0357 20.0036 26.0357C22.275 26.0357 24.1071 24.2322 24.1071 21.9963C24.1071 19.7604 22.275 17.9568 20.0036 17.9568ZM20.0036 24.6225C18.5357 24.6225 17.3357 23.4447 17.3357 21.9963C17.3357 20.5479 18.5321 19.3701 20.0036 19.3701C21.475 19.3701 22.6714 20.5479 22.6714 21.9963C22.6714 23.4447 21.4714 24.6225 20.0036 24.6225ZM25.2321 17.7916C25.2321 18.3154 24.8036 18.7338 24.275 18.7338C23.7429 18.7338 23.3179 18.3119 23.3179 17.7916C23.3179 17.2713 23.7464 16.8494 24.275 16.8494C24.8036 16.8494 25.2321 17.2713 25.2321 17.7916ZM27.95 18.7479C27.8893 17.4857 27.5964 16.3678 26.6571 15.4467C25.7214 14.5256 24.5857 14.2373 23.3036 14.174C21.9821 14.1002 18.0214 14.1002 16.7 14.174C15.4214 14.2338 14.2857 14.5221 13.3464 15.4432C12.4071 16.3643 12.1179 17.4822 12.0536 18.7443C11.9786 20.0451 11.9786 23.9439 12.0536 25.2447C12.1143 26.5068 12.4071 27.6248 13.3464 28.5459C14.2857 29.467 15.4179 29.7553 16.7 29.8186C18.0214 29.8924 21.9821 29.8924 23.3036 29.8186C24.5857 29.7588 25.7214 29.4705 26.6571 28.5459C27.5928 27.6248 27.8857 26.5068 27.95 25.2447C28.025 23.9439 28.025 20.0486 27.95 18.7479ZM26.2428 26.6404C25.9643 27.3295 25.425 27.8604 24.7214 28.1381C23.6679 28.5494 21.1678 28.4545 20.0036 28.4545C18.8393 28.4545 16.3357 28.5459 15.2857 28.1381C14.5857 27.8639 14.0464 27.333 13.7643 26.6404C13.3464 25.6033 13.4429 23.1424 13.4429 21.9963C13.4429 20.8502 13.35 18.3857 13.7643 17.3521C14.0429 16.6631 14.5821 16.1322 15.2857 15.8545C16.3393 15.4432 18.8393 15.5381 20.0036 15.5381C21.1678 15.5381 23.6714 15.4467 24.7214 15.8545C25.4214 16.1287 25.9607 16.6596 26.2428 17.3521C26.6607 18.3893 26.5643 20.8502 26.5643 21.9963C26.5643 23.1424 26.6607 25.6068 26.2428 26.6404Z" fill="black"/>
</g>
<defs>
<clipPath id="clip0_2103_7">
<rect width="16" height="18" fill="white" transform="translate(12 13)"/>
</clipPath>
</defs>
</svg>
